<?xml version="1.0" encoding="iso-8859-1"?>
<!-- Generator: Adobe Illustrator 19.0.0, SVG Export Plug-In . SVG Version: 6.00 Build 0)  -->
<svg version="1.1" id="Capa_1" xmlns="http://www.w3.org/2000/svg" xmlns:xlink="http://www.w3.org/1999/xlink" x="0px" y="0px"
	 viewBox="0 0 512 512" style="enable-background:new 0 0 512 512;" xml:space="preserve">
<g>
	<path style="fill:#EFEDEE;" d="M256,9.67l-15.498,9.388L256,26.613c95.807,115.38,0,281.599,0,281.599l27.815,11.66l16.085-19.959
		c63.474-72.155,135.517-25.622,135.517-25.622l22.155,11.927l7.441-17.523C465.013,252.546,400.568,9.67,256,9.67z"/>
	<path style="fill:#EFEDEE;" d="M63.962,288.212c-1.489,4.564,2.552,8.999,7.241,7.967c27.118-5.965,101.681-18.748,169.299,2.556
		V19.058C158.515,19.058,80.794,236.619,63.962,288.212z"/>
</g>
<path style="fill:#D2D2D2;" d="M194.097,289.032c15.403,1.803,31.082,4.876,46.404,9.703V19.058c-15.76,0-31.362,8.046-46.404,21.4
	V289.032z"/>
<path style="fill:#465759;" d="M246.502,0.172h-12.001c-5.246,0-9.498,4.253-9.498,9.498v323.937H256V9.67
	C256,4.425,251.747,0.172,246.502,0.172z"/>
<path style="fill:#57D0E6;" d="M485.947,298.735c0.165-4.141,0.319-7.932,0.505-11.25c0.659-11.744-9.879-20.974-21.438-18.79
	l-411.609,77.82c-10.24,1.937-16.74,12.115-14.186,22.221l3.482,13.794l26.468,26.468L485.947,298.735z"/>
<path style="fill:#465759;" d="M485.947,298.735c-1.463,36.18-3.925,99.855-37.303,122.437l-9.787,16.483H57.175l-11.136-41.928
	l-3.338-13.197L485.947,298.735z"/>
<g>
	<path style="fill:#EFEDEE;" d="M338.596,383.042c-3.432,0-6.564-2.302-7.471-5.778l-2.512-9.632
		c-1.078-4.129,1.397-8.349,5.526-9.426c4.128-1.077,8.349,1.397,9.425,5.527l2.512,9.632c1.078,4.129-1.397,8.349-5.526,9.426
		C339.898,382.961,339.241,383.042,338.596,383.042z"/>
	<path style="fill:#EFEDEE;" d="M445.041,355.281c-3.432,0-6.564-2.302-7.471-5.778l-2.512-9.632
		c-1.078-4.129,1.397-8.349,5.526-9.426c4.128-1.079,8.349,1.398,9.425,5.527l2.512,9.632c1.078,4.129-1.397,8.349-5.526,9.426
		C446.343,355.199,445.686,355.281,445.041,355.281z"/>
	<path style="fill:#EFEDEE;" d="M388.418,374.913c-5.087,0-10.057-1.481-14.251-4.337c-3.528-2.4-4.443-7.206-2.042-10.734
		c2.401-3.528,7.21-4.441,10.734-2.041c2.348,1.597,5.391,2.072,8.356,1.297c2.962-0.773,5.388-2.672,6.657-5.213
		c1.907-3.819,6.545-5.366,10.365-3.46c3.818,1.907,5.367,6.547,3.46,10.365c-3.261,6.529-9.305,11.364-16.582,13.263
		C392.898,374.628,390.648,374.913,388.418,374.913z"/>
</g>
<polygon style="fill:#57D0E6;" points="0,511.828 0,462.464 19.215,432.313 480.579,432.313 512,462.464 512,511.828 "/>
<path style="fill:#85E7FF;" d="M0,462.464c23.34-10.078,49.803-10.078,73.143,0l0,0c23.34,10.078,49.803,10.078,73.143,0l0,0
	c23.34-10.078,49.803-10.078,73.143,0l0,0c23.34,10.078,49.803,10.078,73.143,0l0,0c23.34-10.078,49.803-10.078,73.143,0l0,0
	c23.34,10.078,49.803,10.078,73.143,0l0,0c23.34-10.078,49.803-10.078,73.143,0v-49.365c-23.34-10.078-49.803-10.078-73.143,0l0,0
	c-23.34,10.078-49.803,10.078-73.143,0l0,0c-23.34-10.078-49.803-10.078-73.143,0l0,0c-23.34,10.078-49.803,10.078-73.143,0l0,0
	c-23.34-10.078-49.803-10.078-73.143,0l0,0c-23.34,10.078-49.803,10.078-73.143,0l0,0c-23.34-10.078-49.803-10.078-73.143,0V462.464
	z"/>
<g>
</g>
<g>
</g>
<g>
</g>
<g>
</g>
<g>
</g>
<g>
</g>
<g>
</g>
<g>
</g>
<g>
</g>
<g>
</g>
<g>
</g>
<g>
</g>
<g>
</g>
<g>
</g>
<g>
</g>
</svg>
